HIERARCHY
ROOT joint_Root
{
	OFFSET 0.0 0.0 0.0
	CHANNELS 6 Xposition Yposition Zposition Zrotation Xrotation Yrotation 
	JOINT Hips
	{
		OFFSET 4.5925 91.4895 -427.239
		CHANNELS 6 Xposition Yposition Zposition Zrotation Xrotation Yrotation 
		JOINT Spine
		{
			OFFSET 15.7357 0.0 0.0
			CHANNELS 6 Xposition Yposition Zposition Zrotation Xrotation Yrotation 
			JOINT Chest
			{
				OFFSET 8.98455 -0.406207 0.0
				CHANNELS 6 Xposition Yposition Zposition Zrotation Xrotation Yrotation 
				JOINT Neck
				{
					OFFSET 16.3773 0.0 0.0
					CHANNELS 6 Xposition Yposition Zposition Zrotation Xrotation Yrotation 
					JOINT Head
					{
						OFFSET 6.45672 0.0 0.0
						CHANNELS 6 Xposition Yposition Zposition Zrotation Xrotation Yrotation 
						End Site
						{
							OFFSET 0.0 0.0 0.0
						}
					}
				}
				JOINT Shoulder_L
				{
					OFFSET 12.9942 -0.242716 4.98039
					CHANNELS 6 Xposition Yposition Zposition Zrotation Xrotation Yrotation 
					JOINT UpperArm_L
					{
						OFFSET 5.34809 0.0 0.0
						CHANNELS 6 Xposition Yposition Zposition Zrotation Xrotation Yrotation 
						JOINT LowerArm_L
						{
							OFFSET 24.3286 1.87007e-05 0.0
							CHANNELS 6 Xposition Yposition Zposition Zrotation Xrotation Yrotation 
							JOINT Hand_L
							{
								OFFSET 22.2916 0.0 0.0
								CHANNELS 6 Xposition Yposition Zposition Zrotation Xrotation Yrotation 
								End Site
								{
									OFFSET 0.0 0.0 0.0
								}
							}
						}
					}
				}
				JOINT Shoulder_R
				{
					OFFSET 12.9945 -0.242716 -4.98039
					CHANNELS 6 Xposition Yposition Zposition Zrotation Xrotation Yrotation 
					JOINT UpperArm_R
					{
						OFFSET -5.34813 0.0 0.0
						CHANNELS 6 Xposition Yposition Zposition Zrotation Xrotation Yrotation 
						JOINT LowerArm_R
						{
							OFFSET -24.3289 0.000322201 0.0
							CHANNELS 6 Xposition Yposition Zposition Zrotation Xrotation Yrotation 
							JOINT Hand_R
							{
								OFFSET -22.2915 -0.000108084 0.0
								CHANNELS 6 Xposition Yposition Zposition Zrotation Xrotation Yrotation 
								End Site
								{
									OFFSET 0.0 0.0 0.0
								}
							}
						}
					}
				}
			}
		}
		JOINT UpperLeg_L
		{
			OFFSET -2.19248 -6.46944 0.0
			CHANNELS 6 Xposition Yposition Zposition Zrotation Xrotation Yrotation 
			JOINT LowerLeg_L
			{
				OFFSET 39.0811 0.0 -1.23785e-05
				CHANNELS 6 Xposition Yposition Zposition Zrotation Xrotation Yrotation 
				JOINT Foot_L
				{
					OFFSET 40.9854 0.0 -1.26872e-05
					CHANNELS 6 Xposition Yposition Zposition Zrotation Xrotation Yrotation 
					JOINT Toes_L
					{
						OFFSET 11.7543 0.0 0.0
						CHANNELS 6 Xposition Yposition Zposition Zrotation Xrotation Yrotation 
						End Site
						{
							OFFSET 0.0 0.0 0.0
						}
					}
				}
			}
		}
		JOINT UpperLeg_R
		{
			OFFSET -2.19251 6.46944 0.0
			CHANNELS 6 Xposition Yposition Zposition Zrotation Xrotation Yrotation 
			JOINT LowerLeg_R
			{
				OFFSET -39.0811 -0.00228153 -0.0401928
				CHANNELS 6 Xposition Yposition Zposition Zrotation Xrotation Yrotation 
				JOINT Foot_R
				{
					OFFSET -40.9854 0.0 0.0
					CHANNELS 6 Xposition Yposition Zposition Zrotation Xrotation Yrotation 
					JOINT Toes_R
					{
						OFFSET -11.7543 0.0 0.0
						CHANNELS 6 Xposition Yposition Zposition Zrotation Xrotation Yrotation 
						End Site
						{
							OFFSET 0.0 0.0 0.0
						}
					}
				}
			}
		}
	}
}
MOTION
Frames:	4
Frame Time:	0.0333333
0.000000 0.000000 0.000000 0.000000 0.000000 -0.000000 -211.398000 83.233400 204.856000 48.229200 82.168700 41.853400 15.735700 0.000005 -0.000001 79.766400 82.956200 -76.575000 8.984550 -0.406207 -0.000000 6.181020 -2.539810 6.513640 16.377300 -0.000001 -0.000001 -1.166980 1.583650 1.749480 6.456720 -0.000001 -0.000000 -0.820635 4.646650 0.809493 12.994200 -0.242716 4.980390 -91.045900 3.519960 -73.439200 5.348090 -0.000007 -0.000001 -65.237900 43.379400 8.874680 24.328600 0.000019 0.000005 14.282900 5.719180 -68.628600 22.291600 -0.000001 0.000005 4.810950 5.559690 -9.173880 12.994500 -0.242716 -4.980390 87.514300 11.941400 -78.152000 -5.348130 -0.000001 -0.000004 -51.112100 41.975400 -29.589900 -24.328900 0.000322 -0.000009 0.161982 -0.042371 -104.381000 -22.291500 -0.000108 -0.000004 18.595800 5.643120 -14.389100 -2.192480 -6.469440 -0.000000 -170.592000 -0.489595 -8.750720 39.081100 -0.000007 -0.000012 0.029567 -0.008368 74.184600 40.985400 -0.000006 -0.000013 5.684270 1.249370 -40.021800 11.754300 -0.000000 0.000003 -0.009926 -0.103091 -20.777000 -2.192510 6.469440 -0.000001 -174.907000 12.407400 160.773000 -39.081100 -0.002282 -0.040193 -0.656677 0.449362 55.748400 -40.985400 0.000008 0.000006 1.594980 0.038312 -86.561400 -11.754300 -0.000006 -0.000006 -0.000467 -0.007513 -16.879000
0.000000 0.000000 0.000000 0.000000 0.000000 -0.000000 -207.674000 85.292700 204.868000 62.521100 81.861600 27.544300 15.735700 0.000005 -0.000001 93.143500 83.148900 -90.676400 8.984550 -0.406207 -0.000000 5.905300 0.709477 4.892040 16.377300 -0.000001 -0.000001 -1.186940 0.645188 2.324510 6.456720 -0.000001 -0.000000 -1.419730 2.732820 1.535180 12.994200 -0.242716 4.980390 -90.328700 1.072980 -72.965400 5.348090 -0.000007 -0.000001 -65.072100 49.330800 17.058400 24.328600 0.000019 0.000005 9.825630 3.140520 -72.448200 22.291600 -0.000001 0.000005 3.493430 5.564620 -9.417200 12.994500 -0.242716 -4.980390 88.281300 8.496510 -78.519100 -5.348130 -0.000001 -0.000004 -50.361700 40.674800 -39.117000 -24.328900 0.000322 -0.000009 -0.408704 0.159897 -111.222000 -22.291500 -0.000108 -0.000004 18.846500 5.631330 -13.439300 -2.192480 -6.469440 -0.000000 -174.817000 0.005714 -14.934500 39.081100 -0.000007 -0.000012 -0.063088 0.014712 76.879700 40.985400 -0.000006 -0.000013 11.569300 -2.816230 -47.504300 11.754300 -0.000000 0.000003 -0.008334 -0.090750 -20.272600 -2.192510 6.469440 -0.000001 -177.362000 12.573900 167.394000 -39.081100 -0.002282 -0.040193 -0.275211 0.251995 47.857100 -40.985400 0.000008 0.000006 3.159270 1.337800 -85.283600 -11.754300 -0.000006 -0.000006 -0.000821 -0.012834 -17.095200
0.000000 0.000000 0.000000 0.000000 0.000000 -0.000000 -203.773000 87.934400 204.588000 76.216700 81.657600 13.292300 15.735700 0.000005 -0.000001 105.365000 83.224200 -103.818000 8.984550 -0.406207 -0.000000 5.263110 3.549150 2.927440 16.377300 -0.000001 -0.000001 -0.926983 -0.038003 2.499650 6.456720 -0.000001 -0.000000 -1.542120 0.498013 2.184100 12.994200 -0.242716 4.980390 -89.443400 -1.734740 -72.213300 5.348090 -0.000007 -0.000001 -66.122200 52.819100 24.078100 24.328600 0.000019 0.000005 10.410400 2.334630 -77.498400 22.291600 -0.000001 0.000005 2.240640 5.567860 -9.579210 12.994500 -0.242716 -4.980390 88.821400 5.773250 -78.441100 -5.348130 -0.000001 -0.000004 -50.317800 38.473400 -43.837900 -24.328900 0.000322 -0.000009 -3.097180 1.585400 -117.072000 -22.291500 -0.000108 -0.000004 18.873900 5.619960 -12.617200 -2.192480 -6.469440 -0.000000 -178.743000 0.795741 -19.998700 39.081100 -0.000007 -0.000012 -0.075836 0.021901 73.896100 40.985400 -0.000006 -0.000013 11.020100 -5.235630 -52.933600 11.754300 -0.000000 0.000003 -0.007887 -0.087119 -20.124200 -2.192510 6.469440 -0.000001 179.554000 13.690100 174.326000 -39.081100 -0.002282 -0.040193 0.036983 -0.044065 37.406500 -40.985400 0.000008 0.000006 4.771490 3.631820 -80.091500 -11.754300 -0.000006 -0.000006 -0.004924 -0.060730 -19.044000
0.000000 0.000000 0.000000 0.000000 0.000000 -0.000000 -200.141000 90.475800 204.156000 87.077300 80.317000 0.483640 15.735700 0.000005 -0.000001 117.210000 83.378800 -116.625000 8.984550 -0.406207 -0.000000 3.998700 6.026930 0.959244 16.377300 -0.000001 -0.000001 -0.806455 -0.458402 2.218650 6.456720 -0.000001 -0.000000 -1.475310 -1.258540 2.618160 12.994200 -0.242716 4.980390 -88.527200 -4.352510 -71.286600 5.348090 -0.000007 -0.000001 -68.192600 52.949700 30.916400 24.328600 0.000019 0.000005 7.778070 1.086380 -82.103300 22.291600 -0.000001 0.000005 1.791950 5.566690 -9.520190 12.994500 -0.242716 -4.980390 89.232200 3.806950 -78.589000 -5.348130 -0.000001 -0.000004 -50.641200 36.268200 -46.206200 -24.328900 0.000322 -0.000009 -3.421200 2.069220 -121.133000 -22.291500 -0.000108 -0.000004 18.096700 5.603930 -11.575600 -2.192480 -6.469440 -0.000000 178.309000 0.311145 -24.847200 39.081100 -0.000007 -0.000012 -0.050621 0.021892 66.618300 40.985400 -0.000006 -0.000013 9.543500 -4.850350 -57.585500 11.754300 -0.000000 0.000003 -0.007639 -0.085072 -20.040600 -2.192510 6.469440 -0.000001 176.513000 15.633600 177.476000 -39.081100 -0.002282 -0.040193 0.012106 -0.015456 29.666300 -40.985400 0.000008 0.000006 5.053190 8.174900 -70.328600 -11.754300 -0.000006 -0.000006 -0.327707 -0.466185 -23.824200
